<?xml version="1.0" encoding="UTF-8"?>
<svg id="Layer_1" xmlns="http://www.w3.org/2000/svg" version="1.1" viewBox="0 0 500 500">
  <!-- Generator: Adobe Illustrator 29.7.1, SVG Export Plug-In . SVG Version: 2.1.1 Build 8)  -->
  <defs>
    <style>
      .st0 {
        fill: #fd9e0e;
      }

      .st1 {
        fill: #f00000;
      }

      .st2 {
        fill: #00051d;
      }

      .st3 {
        fill: #054078;
      }
    </style>
  </defs>
  <path class="st3" d="M200,3.21v19.41c-16.31,2.92-56.23,11.2-95.73,28.12-1.44.62-2.86,1.24-4.27,1.87-28.14,12.51-50.71,27.21-67.16,43.73C11.05,118.22,0,143.36,0,171.04V0h100v3.21h100Z"/>
  <rect class="st1" x="100" width="100" height="3.21"/>
  <path class="st1" d="M104.27,50.74c39.5-16.92,79.42-25.2,95.73-28.12v477.38h-100V52.61c1.41-.63,2.83-1.25,4.27-1.87Z"/>
  <path class="st1" d="M500,0v171.3c0-27.61-11.02-52.67-32.74-74.49-16.46-16.53-39.07-31.23-67.26-43.73-1.31-.58-2.63-1.16-3.97-1.73-39.87-17.08-80.15-25.34-96.03-28.16V3.21h100V0h100Z"/>
  <rect class="st1" x="300" width="100" height="3.21"/>
  <path class="st1" d="M396.03,51.35c1.34.57,2.66,1.15,3.97,1.73v446.92h-100V23.19c15.88,2.82,56.16,11.08,96.03,28.16Z"/>
  <rect class="st3" x="200" width="100" height="500"/>
  <path class="st3" d="M100,52.61v447.39H0V171.04c0-27.68,11.05-52.82,32.84-74.7,16.45-16.52,39.02-31.22,67.16-43.73Z"/>
  <path class="st3" d="M500,171.3v328.7h-100V53.08c28.19,12.5,50.8,27.2,67.26,43.73,21.72,21.82,32.74,46.88,32.74,74.49Z"/>
  <path class="st0" d="M208.35,26.31c-.12.01-3.14.45-8.35,1.4-16.6,3.01-55.43,11.21-93.85,27.68-2.03.87-4.09,1.78-6.15,2.71C55.27,78.4,5.01,113.92,5.01,171.04v329.51H0V171.04c0-27.68,11.05-52.82,32.84-74.7,16.45-16.52,39.02-31.22,67.16-43.73,1.41-.63,2.83-1.25,4.27-1.87,39.5-16.92,79.42-25.2,95.73-28.12,4.78-.86,7.54-1.26,7.65-1.27l.7,4.96Z"/>
  <path class="st0" d="M500,171.3v328.56h-5V171.3c0-57.07-50.32-92.53-95-112.74-1.96-.89-3.91-1.75-5.85-2.58-38.76-16.62-77.94-24.8-94.15-27.71-4.84-.87-7.63-1.27-7.75-1.29l.69-4.95c.11.01,2.64.38,7.06,1.16,15.88,2.82,56.16,11.08,96.03,28.16,1.34.57,2.66,1.15,3.97,1.73,28.19,12.5,50.8,27.2,67.26,43.73,21.72,21.82,32.74,46.88,32.74,74.49Z"/>
  <path class="st2" d="M400,0v3.21c-96.95,34.91-203.05,34.91-300,0V0h300Z"/>
</svg>