<?xml version="1.0" encoding="UTF-8"?>
<svg id="Layer_1" xmlns="http://www.w3.org/2000/svg" version="1.1" viewBox="0 0 500 500">
  <!-- Generator: Adobe Illustrator 29.7.1, SVG Export Plug-In . SVG Version: 2.1.1 Build 8)  -->
  <defs>
    <style>
      .st0 {
        fill: #a1224b;
      }

      .st1 {
        fill: #ffdf1b;
        fill-rule: evenodd;
      }
    </style>
  </defs>
  <path class="st1" d="M459.6,245.82l-6.24-6.47c-17.31-17.97-39.3-53.5-39.3-93.71,0-21.56,6.32-44.46,23.07-66.73l3.77-5.01-3.31-5.32c-2.07-3.33-3.83-5.47-5.7-7.74-1.51-1.84-3.07-3.74-5.18-6.74l-3.96-5.64-6.51,2.25c-9.78,3.37-19.93,5.16-29.39,5.16-27.42,0-45.38-2.68-67.49-17.32l-5.17-3.43-5.1,3.54c-19.56,13.58-38.42,19.91-59.35,19.91s-39.79-6.33-59.35-19.91l-5.1-3.54-5.17,3.43c-22.11,14.64-40.08,17.32-67.49,17.32-9.45,0-19.61-1.78-29.38-5.16l-6.51-2.25-3.96,5.63c-2.11,3-3.67,4.9-5.18,6.74-1.87,2.27-3.63,4.41-5.69,7.73l-3.31,5.32,3.77,5.01c16.75,22.26,23.08,45.17,23.08,66.73,0,40.21-21.98,75.74-39.3,93.7l-6.24,6.47,6.36,6.35c3.41,3.41,9.49,9.72,14.52,15-.01.21-.2,2.77-.2,2.77l-.04.5c-.21,3.9-.31,7.75-.31,11.54,0,40.83,12.07,74.78,35.95,101.04,27.65,30.4,70.89,48.55,121.99,51.38,12.69,11.56,25.58,21.15,26.16,21.58l5.46,4.05,5.46-4.06c.57-.43,13.4-10.01,26.07-21.57,51.1-2.83,94.34-20.97,121.99-51.38,23.88-26.26,35.95-60.2,35.95-101.03,0-3.79-.1-7.63-.31-11.54v-.09s-.05-.5-.05-.5c0,0-.18-2.48-.19-2.68,4.65-4.89,10.93-11.42,14.52-15l6.36-6.35Z"/>
  <path class="st0" d="M302.88,226.74h26.1l2.98-16.89c3.26-18.46-.94-33.05-12.6-43.78-1.57-1.47-3.26-2.82-5.07-4.06l5.68-32.24h-42.46l-3.59,20.37c-2.21-.13-4.51-.18-6.87-.18s-4.8.05-7.16.18l3.59-20.37h-42.48l-5.68,32.19c-2.25,1.27-4.42,2.64-6.51,4.11-15.47,10.91-24.79,25.49-28.01,43.78l-13.3,75.46c-3.22,18.29,1.07,32.79,12.89,43.52,1.5,1.42,3.09,2.74,4.81,3.96l-5.75,32.59h42.48l3.6-20.42c2.38.15,4.84.2,7.37.2,2.26,0,4.47-.05,6.65-.15l-3.59,20.37h42.46l5.69-32.26c2.34-1.32,4.62-2.74,6.79-4.29,15.26-10.73,24.51-25.24,27.74-43.52l2.98-16.89h-42.48l-2.65,15.04c-1.36,7.74-5.27,13.8-11.78,18.19-4.99,3.4-11.19,5.48-18.6,6.24-2.2.25-4.53.36-6.96.36s-4.85-.1-7.07-.33c-7.55-.76-13.38-2.79-17.51-6.11-5.3-4.31-7.24-10.42-5.85-18.34l12.65-71.75c1.36-7.74,5.5-13.8,12.44-18.21,5.28-3.35,11.81-5.43,19.54-6.24,2.37-.23,4.88-.36,7.47-.36,2.33,0,4.52.1,6.56.33,7.25.74,12.78,2.76,16.57,6.14,4.84,4.31,6.58,10.42,5.19,18.34l-2.65,15.04h16.39Z"/>
</svg>