<?xml version="1.0" encoding="UTF-8"?>
<svg id="Layer_1" xmlns="http://www.w3.org/2000/svg" version="1.1" viewBox="0 0 200 200">
  <!-- Generator: Adobe Illustrator 29.7.1, SVG Export Plug-In . SVG Version: 2.1.1 Build 8)  -->
  <defs>
    <style>
      .st0 {
        fill: #fff;
      }
    </style>
  </defs>
  <path class="st0" d="M100,122.08c-24.24,0-47.05-4.37-64.23-12.29-17.5-8.08-27.13-18.93-27.13-30.57s9.64-22.5,27.13-30.57c17.18-7.93,39.99-12.29,64.23-12.29s47.05,4.37,64.23,12.29c17.5,8.08,27.13,18.93,27.13,30.57s-9.64,22.5-27.13,30.57c-17.18,7.93-39.99,12.29-64.23,12.29ZM100,38.95c-48.94,0-88.76,18.06-88.76,40.27s39.82,40.27,88.76,40.27,88.76-18.06,88.76-40.27-39.82-40.27-88.76-40.27Z"/>
  <rect class="st0" x="98.27" y="120.78" width="3.46" height="41.57"/>
  <path class="st0" d="M100,163.65c-57.19,0-91.36-21.79-91.36-42.86v-41.57h2.6v41.57c0,9.95,8.58,19.94,23.53,27.41,16.58,8.29,39.74,12.85,65.23,12.85s48.66-4.56,65.23-12.85c14.95-7.48,23.53-17.47,23.53-27.41v-41.57h2.6v41.57c0,21.07-34.17,42.86-91.36,42.86Z"/>
  <rect class="st0" x="153.69" y="112.21" width="3.46" height="41.57"/>
  <rect class="st0" x="43.28" y="112.21" width="2.6" height="41.57"/>
  <path class="st0" d="M118.94,100.79h-31.39l2.66-4.49c-1.33,0-2.65,0-3.79,0l-2.82,4.5h-31.41l6.77-7.71c-.58-.2-1.13-.41-1.66-.63-6.22-2.56-7.19-6.07-3.25-10.42l13.73-16.75c3.12-4.27,8.41-7.72,15.49-10.26.71-.26,1.45-.52,2.19-.76l3.65-7.45h17.14l-.95,4.48c.75,0,1.58,0,2.3,0l.8-4.49h17.13l.55,7.63c.55.21,1.08.43,1.58.66,5.95,2.57,9.39,6.1,9.84,10.48l.29,4.45h-23.28l.86-4.33c.26-1.46-.49-2.54-2.24-3.29-1.41-.62-3.49-1.01-6.19-1.15-1.61-.1-3.64-.09-5.54,0-2.96.17-5.51.59-7.57,1.26-2.67.85-4.33,1.99-5.07,3.48l-9.02,15.92c-.94,1.46-.39,2.5,1.74,3.27,1.8.62,4.59,1.02,8.29,1.17,1.11.05,2.31.07,3.67.07s2.53-.02,3.59-.07c3.73-.16,6.83-.57,9.22-1.24,3.01-.85,4.69-1.99,5.17-3.48l1.2-4.04h25.28l-.17,4.74c-.31,4.27-4.73,7.7-13.34,10.2-.95.27-1.96.53-3.08.8l-2.36,7.47ZM93.33,99.1h21.42l2.37-6.86.88-.2c1.33-.3,2.5-.59,3.57-.9,7.67-2.24,11.68-5.31,12.1-9.12l.23-2.76h-17.81l-.7,2.64c-.55,1.95-2.8,3.49-6.72,4.59-2.98.83-6.77,1.34-11.25,1.52-1.22.06-2.57.08-4.11.08s-2.89-.03-4.16-.08c-4.58-.18-8.14-.7-10.56-1.54-3.25-1.16-4.14-2.8-2.73-4.87l9.63-15.92c1.03-1.95,3.32-3.5,6.76-4.61,2.47-.81,5.43-1.32,8.83-1.51,2.1-.11,4.31-.11,6.07,0,3.3.18,5.96.71,7.9,1.57,2.69,1.16,3.96,2.79,3.68,4.85l-.36,2.35h15.8l-.1-3.05c-.24-3.83-2.95-6.75-8-8.95-.65-.29-1.34-.57-2.07-.83l-.87-.31-.14-6.7h-12.17l-.7,4.56-1.27-.04c-.76-.03-1.58-.04-2.49-.04s-1.79.01-2.6.04l-1.79.06,1.22-4.58h-12.18l-3.15,6.84-.64.2c-.88.27-1.75.56-2.59.87-6.46,2.3-11,5.3-13.69,9.17l-13.09,16.75c-3.29,3.79-2.43,6.7,2.89,8.89.74.31,1.47.57,2.28.82l1.03.31-5.59,6.77h21.43l2.99-4.58,2.01.05c1.23.03,2.57.04,4.22.04,1.3,0,2.58-.01,3.84-.03l2.82-.05-2.46,4.57Z"/>
</svg>