<?xml version="1.0" encoding="UTF-8"?>
<svg id="Layer_1" xmlns="http://www.w3.org/2000/svg" version="1.1" viewBox="0 0 200 200">
  <!-- Generator: Adobe Illustrator 29.7.1, SVG Export Plug-In . SVG Version: 2.1.1 Build 8)  -->
  <defs>
    <style>
      .st0 {
        fill: none;
        stroke: #fff;
        stroke-linecap: round;
        stroke-linejoin: round;
        stroke-width: 3px;
      }
    </style>
  </defs>
  <path class="st0" d="M131.33,192.17h-61.67v-86.33c0-3.41,2.76-6.17,6.17-6.17h49.33c3.41,0,6.17,2.76,6.17,6.17v86.33Z"/>
  <path class="st0" d="M186.83,192.17h-55.5v-29.81c0-3.41,2.76-6.17,6.17-6.17h49.33c3.41,0,6.17,2.76,6.17,6.17v23.64c0,3.41-2.76,6.17-6.17,6.17Z"/>
  <path class="st0" d="M69.67,192.17v-50.36c0-3.41-2.76-6.17-6.17-6.17H14.17c-3.41,0-6.17,2.76-6.17,6.17v44.19c0,3.41,2.76,6.17,6.17,6.17h55.5Z"/>
  <path class="st0" d="M88.22,28.89l9.34-19.81c1.2-2.54,4.67-2.54,5.86,0l9.34,19.81,20.9,3.2c2.68.41,3.75,3.86,1.81,5.84l-15.12,15.41,3.57,21.77c.46,2.8-2.35,4.93-4.74,3.61l-18.69-10.28-18.69,10.28c-2.4,1.32-5.2-.81-4.74-3.61l3.57-21.77-15.12-15.41c-1.94-1.98-.87-5.43,1.81-5.84l20.9-3.2Z"/>
</svg>