<?xml version="1.0" encoding="UTF-8"?>
<svg id="Layer_1" xmlns="http://www.w3.org/2000/svg" version="1.1" viewBox="0 0 200 200">
  <!-- Generator: Adobe Illustrator 29.7.1, SVG Export Plug-In . SVG Version: 2.1.1 Build 8)  -->
  <defs>
    <style>
      .st0 {
        fill-rule: evenodd;
        stroke-miterlimit: 10;
      }

      .st0, .st1 {
        fill: none;
        stroke: #fff;
        stroke-width: 3px;
      }

      .st1 {
        stroke-linecap: round;
        stroke-linejoin: round;
      }
    </style>
  </defs>
  <path class="st0" d="M191.37,99.23l-2.72-2.82c-7.54-7.82-17.11-23.29-17.11-40.8,0-9.39,2.75-19.36,10.05-29.05l1.64-2.18-1.44-2.32c-.9-1.45-1.67-2.38-2.48-3.37-.66-.8-1.34-1.63-2.25-2.93l-1.72-2.45-2.83.98c-4.26,1.47-8.68,2.25-12.79,2.25-11.94,0-19.76-1.17-29.39-7.54l-2.25-1.49-2.22,1.54c-8.52,5.91-16.73,8.67-25.84,8.67s-17.32-2.75-25.84-8.67l-2.22-1.54-2.25,1.49c-9.63,6.37-17.45,7.54-29.39,7.54-4.12,0-8.54-.78-12.79-2.25l-2.83-.98-1.72,2.45c-.92,1.3-1.6,2.13-2.26,2.93-.81.99-1.58,1.92-2.48,3.37l-1.44,2.32,1.64,2.18c7.29,9.69,10.05,19.67,10.05,29.06,0,17.51-9.57,32.98-17.11,40.8l-2.72,2.82,2.77,2.77c1.49,1.48,4.13,4.23,6.32,6.53,0,.09-.09,1.21-.09,1.21l-.02.22c-.09,1.7-.14,3.37-.14,5.02,0,17.78,5.26,32.56,15.65,43.99,12.04,13.24,30.87,21.14,53.12,22.37,5.53,5.03,11.14,9.21,11.39,9.39l2.38,1.76,2.38-1.77c.25-.19,5.83-4.36,11.35-9.39,22.25-1.23,41.08-9.13,53.12-22.37,10.4-11.43,15.65-26.21,15.65-43.99,0-1.65-.05-3.32-.14-5.03v-.04s-.02-.22-.02-.22c0,0-.08-1.08-.08-1.17,2.03-2.13,4.76-4.97,6.32-6.53l2.77-2.76Z"/>
  <g>
    <polyline class="st1" points="63 68.25 64.79 88.42 51.52 103.69"/>
    <polyline class="st1" points="148.59 103.68 135.32 88.41 137.11 68.25"/>
    <g>
      <path class="st1" d="M100,50.96c-27.08,0-49.04,21.96-49.04,49.04s21.96,49.04,49.04,49.04,49.04-21.96,49.04-49.04-21.96-49.04-49.04-49.04h0Z"/>
      <polygon class="st1" points="86.59 120.72 78.26 95 100.06 79.11 121.86 95 113.53 120.72 86.59 120.72"/>
      <polyline class="st1" points="118.63 54.78 100.06 62.7 81.49 54.78"/>
      <polyline class="st1" points="58.59 125.49 78.26 130.02 88.64 147.39"/>
      <polyline class="st1" points="111.49 147.39 121.86 130.01 141.52 125.48"/>
      <line class="st1" x1="100.06" y1="62.7" x2="100.06" y2="79.11"/>
      <line class="st1" x1="121.86" y1="95.64" x2="135.32" y2="88.41"/>
      <line class="st1" x1="113.53" y1="120.72" x2="121.86" y2="130.01"/>
      <line class="st1" x1="86.59" y1="120.72" x2="78.26" y2="130.02"/>
      <line class="st1" x1="64.79" y1="88.42" x2="78.26" y2="95"/>
    </g>
  </g>
</svg>