<?xml version="1.0" encoding="UTF-8"?>
<svg id="Layer_1" xmlns="http://www.w3.org/2000/svg" version="1.1" viewBox="0 0 200 200">
  <!-- Generator: Adobe Illustrator 29.7.1, SVG Export Plug-In . SVG Version: 2.1.1 Build 8)  -->
  <defs>
    <style>
      .st0 {
        fill: #fff;
        fill-rule: evenodd;
      }
    </style>
  </defs>
  <path class="st0" d="M22.92,191.5c-7.95,0-14.42-6.47-14.42-14.42v-104.83c0-7.95,6.47-14.42,14.42-14.42h33.92c1.15,0,2.08.93,2.08,2.08s-.93,2.08-2.08,2.08H22.92c-5.65,0-10.25,4.6-10.25,10.25v104.83c0,5.65,4.6,10.25,10.25,10.25h154.17c5.65,0,10.25-4.6,10.25-10.25v-104.83c0-5.65-4.6-10.25-10.25-10.25h-33.92c-1.15,0-2.08-.93-2.08-2.08s.93-2.08,2.08-2.08h33.92c7.95,0,14.42,6.47,14.42,14.42v104.83c0,7.95-6.47,14.42-14.42,14.42H22.92ZM100,179.17c-1.15,0-2.08-.93-2.08-2.08v-35.04l-.83-.14c-8.45-1.43-14.58-8.67-14.58-17.24s6.13-15.81,14.58-17.24l.83-.14v-16.54c0-1.15.93-2.08,2.08-2.08s2.08.93,2.08,2.08v16.54l.83.14c8.45,1.42,14.58,8.67,14.58,17.24s-6.13,15.81-14.58,17.24l-.83.14v35.04c0,1.15-.93,2.08-2.08,2.08ZM96.67,111.8c-5.89,1.53-10,6.82-10,12.86s4.11,11.33,10,12.86l1.25.33v-26.38l-1.25.33ZM102.08,137.86l1.25-.33c5.89-1.53,10-6.82,10-12.86s-4.11-11.33-10-12.86l-1.25-.33v26.38ZM146.25,160.67c-1.15,0-2.08-.93-2.08-2.08v-67.83c0-1.15.93-2.08,2.08-2.08h30.83c1.15,0,2.08.93,2.08,2.08s-.93,2.08-2.08,2.08h-28.75v63.67h28.75c1.15,0,2.08.93,2.08,2.08s-.93,2.08-2.08,2.08h-30.83ZM22.92,160.67c-1.15,0-2.08-.93-2.08-2.08s.93-2.08,2.08-2.08h28.75v-63.67h-28.75c-1.15,0-2.08-.93-2.08-2.08s.93-2.08,2.08-2.08h30.83c1.15,0,2.08.93,2.08,2.08v67.83c0,1.15-.93,2.08-2.08,2.08h-30.83ZM170.92,142.17c-1.15,0-2.08-.93-2.08-2.08v-30.83c0-1.15.93-2.08,2.08-2.08h6.17c1.15,0,2.08.93,2.08,2.08s-.93,2.08-2.08,2.08h-4.08v26.67h4.08c1.15,0,2.08.93,2.08,2.08s-.93,2.08-2.08,2.08h-6.17ZM22.92,142.17c-1.15,0-2.08-.93-2.08-2.08s.93-2.08,2.08-2.08h4.08v-26.67h-4.08c-1.15,0-2.08-.93-2.08-2.08s.93-2.08,2.08-2.08h6.17c1.15,0,2.08.93,2.08,2.08v30.83c0,1.15-.93,2.08-2.08,2.08h-6.17ZM100,80.5c-7.53,0-14.76-2.34-20.93-6.77-.1-.07-.17-.1-.23-.13-.04-.05-.09-.1-.15-.15-9.36-6.94-14.69-17.48-14.69-28.95,0-3.74.59-7.46,1.76-11.06l.05-.14c4.87-14.83,18.61-24.8,34.19-24.8s29.33,9.97,34.2,24.81l.05.14v.02c1.17,3.56,1.76,7.28,1.76,11.03,0,11.48-5.34,22.01-14.64,28.91l-.05.04-.11.11-.03.04s-.09.04-.13.07l-.09.06c-6.17,4.44-13.41,6.78-20.95,6.78ZM83.06,71.43l.97.57c4.87,2.84,10.39,4.34,15.97,4.34s11.09-1.5,15.95-4.33l.98-.57-7.21-9.44h-19.54l-7.12,9.43ZM119.24,40.43l-6.11,19.16,7.17,9.39.8-.72c6.82-6.06,10.73-14.73,10.73-23.77,0-2.23-.25-4.51-.74-6.76l-.24-1.08-11.62,3.77ZM68.9,37.74c-.49,2.25-.74,4.53-.74,6.76,0,9.04,3.91,17.7,10.72,23.76l.81.72,7.12-9.42-6.07-19.12-11.6-3.77-.23,1.08ZM84.86,39.61l5.78,18.22h18.68l5.83-18.27-15.14-10.99-15.15,11.04ZM96.82,12.83c-11.36,1.13-21.3,8.36-25.94,18.86l-.45,1.01,11.64,3.78,15.84-11.54v-12.22l-1.1.11ZM102.08,24.94l15.88,11.53,11.6-3.76-.45-1.01c-4.63-10.5-14.57-17.73-25.94-18.86l-1.1-.11v12.22Z"/>
</svg>