<?xml version="1.0" encoding="UTF-8"?>
<svg id="Layer_1" xmlns="http://www.w3.org/2000/svg" version="1.1" viewBox="0 0 200 200">
  <!-- Generator: Adobe Illustrator 29.7.1, SVG Export Plug-In . SVG Version: 2.1.1 Build 8)  -->
  <defs>
    <style>
      .st0 {
        fill: none;
        stroke: #fff;
        stroke-miterlimit: 10;
        stroke-width: 3px;
      }
    </style>
  </defs>
  <path class="st0" d="M100.38,137.52c-28.75,0-52.14-23.39-52.14-52.14v-25.74c0-28.75,23.39-52.14,52.14-52.14s52.14,23.39,52.14,52.14v25.74c0,28.75-23.39,52.14-52.14,52.14Z"/>
  <path class="st0" d="M170.77,192.5H29.23c-12.06,0-21.87-9.81-21.87-21.87v-16.16c0-7.14,3.61-16.7,20.83-21.72l21.17-5.86c1.97-.54,4.01.61,4.55,2.58s-.61,4.01-2.58,4.55l-21.12,5.85c-15.45,4.5-15.45,12.1-15.45,14.6v16.16c0,7.98,6.49,14.47,14.47,14.47h141.54c7.98,0,14.47-6.49,14.47-14.47v-16.16c0-6.74-5.21-11.65-15.49-14.61l-20.15-5.63c-1.97-.55-3.12-2.59-2.57-4.56.55-1.97,2.59-3.12,4.56-2.57l20.18,5.64c17.25,4.96,20.87,14.55,20.87,21.73v16.16c0,12.05-9.8,21.87-21.86,21.87Z"/>
</svg>